<svg width="21" height="23" viewBox="0 0 21 23" fill="none" xmlns="http://www.w3.org/2000/svg">
<path fill-rule="evenodd" clip-rule="evenodd" d="M12.75 18.25C12.75 19.4926 11.7426 20.5 10.5 20.5C9.25737 20.5 8.24998 19.4926 8.24998 18.25H12.75ZM10.5 0.25C6.14625 0.25 2.62502 4.27748 2.62502 9.25002V11.8263L0.375 18.25H6.00002C6.00002 20.7353 8.01473 22.75 10.5 22.75C12.9853 22.75 15 20.7353 15 18.25H20.625L18.375 11.8263V9.57623C18.375 5.3125 15.8888 1.40873 12.2438 0.576268C11.6779 0.397163 11.0923 0.287602 10.5 0.25ZM3.5475 16L4.75127 12.625L4.87498 12.2087V9.25002C4.87498 5.52623 7.395 2.50002 10.5 2.50002C10.9057 2.49931 11.31 2.54843 11.7038 2.64625C14.2237 3.26498 16.125 6.22375 16.125 9.52002V12.2087L16.2487 12.5688L17.4525 16H3.5475Z" fill="black"/>
</svg>
