<svg width="18" height="18" viewBox="0 0 18 18" fill="none" xmlns="http://www.w3.org/2000/svg">
<path d="M18 9C18 13.9707 13.9707 18 9 18C4.0293 18 0 13.9707 0 9C0 4.0293 4.0293 0 9 0V1.8C7.30688 1.80013 5.66797 2.39693 4.37122 3.48555C3.07447 4.57416 2.20284 6.08494 1.90947 7.75244C1.6161 9.41995 1.91976 11.1375 2.76711 12.6033C3.61444 14.0692 4.95126 15.1895 6.54266 15.7675C8.13406 16.3455 9.87825 16.3441 11.4688 15.7637C13.0593 15.1833 14.3944 14.0609 15.2395 12.5938C16.0846 11.1267 16.3857 9.4087 16.0897 7.74164C15.7938 6.07459 14.9199 4.56513 13.6215 3.4785L11.7 5.4V0H17.1L14.8977 2.2023C15.8724 3.04631 16.654 4.09028 17.1893 5.26324C17.7246 6.4362 18.0011 7.71066 18 9Z" fill="#646368"/>
</svg>
