<svg width="18" height="18" viewBox="0 0 18 18" fill="none" xmlns="http://www.w3.org/2000/svg">
<path d="M10.9423 0H6.45591L5.94125 2.57489C5.51513 2.76584 5.10994 3.00043 4.73216 3.27489L2.24239 2.4325L0 6.3175L1.97352 8.05159C1.92586 8.51598 1.92586 8.98402 1.97352 9.44841L0 11.1825L2.24318 15.0675L4.73216 14.2259C5.10761 14.498 5.5117 14.7334 5.94125 14.9251L6.45591 17.5H10.9423L11.4569 14.9251C11.8831 14.7342 12.2882 14.4996 12.666 14.2251L15.1558 15.0675L17.399 11.1825L15.4247 9.44841C15.4723 8.98402 15.4723 8.51598 15.4247 8.05159L17.3982 6.3175L15.155 2.4325L12.6668 3.27409C12.289 2.99991 11.8838 2.76559 11.4577 2.57489L10.9423 0ZM8.69909 11.9318C7.85522 11.9318 7.04591 11.5966 6.44921 10.9999C5.8525 10.4032 5.51727 9.59387 5.51727 8.75C5.51727 7.90613 5.8525 7.09682 6.44921 6.50011C7.04591 5.90341 7.85522 5.56818 8.69909 5.56818C9.54296 5.56818 10.3523 5.90341 10.949 6.50011C11.5457 7.09682 11.8809 7.90613 11.8809 8.75C11.8809 9.59387 11.5457 10.4032 10.949 10.9999C10.3523 11.5966 9.54296 11.9318 8.69909 11.9318Z" fill="#0F7685"/>
</svg>
