<svg width="18" height="18" viewBox="0 0 18 18" fill="none" xmlns="http://www.w3.org/2000/svg">
<path d="M8.75 0C13.5826 0 17.5 3.91738 17.5 8.75C17.5 13.5826 13.5826 17.5 8.75 17.5C3.91738 17.5 0 13.5826 0 8.75C0 3.91738 3.91738 0 8.75 0ZM7.93625 4.88337C7.77441 4.88384 7.61933 4.94833 7.50489 5.06277C7.39046 5.17721 7.32596 5.33229 7.3255 5.49412V10.3775C7.3255 10.7153 7.5985 10.9882 7.93625 10.9882H12.8196C12.9017 10.9914 12.9836 10.9779 13.0604 10.9486C13.1371 10.9193 13.2072 10.8749 13.2664 10.8179C13.3255 10.7609 13.3726 10.6926 13.4048 10.617C13.4369 10.5414 13.4535 10.4601 13.4535 10.3779C13.4535 10.2958 13.4369 10.2145 13.4048 10.1389C13.3726 10.0633 13.3255 9.99496 13.2664 9.93798C13.2072 9.881 13.1371 9.83654 13.0604 9.80727C12.9836 9.778 12.9017 9.76452 12.8196 9.76762H8.54613V5.49412C8.54566 5.33244 8.48129 5.17749 8.36704 5.06308C8.25279 4.94866 8.09794 4.88407 7.93625 4.88337Z" fill="#0F7685"/>
</svg>
