<svg width="16" height="18" viewBox="0 0 16 18" fill="none" xmlns="http://www.w3.org/2000/svg">
<path d="M0 16.3625V6.47563C0 6.18443 0.065215 5.90879 0.195645 5.64868C0.326075 5.38858 0.505796 5.17436 0.734807 5.00601L6.86009 0.367404C7.18086 0.122468 7.54712 0 7.95889 0C8.37065 0 8.73919 0.122468 9.06451 0.367404L15.1898 5.00488C15.4196 5.17322 15.5993 5.38782 15.729 5.64868C15.8594 5.90879 15.9246 6.18443 15.9246 6.47563V16.3625C15.9246 16.6674 15.8112 16.9332 15.5845 17.1599C15.3578 17.3866 15.092 17.5 14.7871 17.5H10.9379C10.6771 17.5 10.4587 17.412 10.2827 17.2361C10.1068 17.0594 10.0188 16.841 10.0188 16.5809V11.1563C10.0188 10.8962 9.93089 10.6782 9.75496 10.5023C9.57827 10.3256 9.35987 10.2372 9.09977 10.2372H6.82483C6.56473 10.2372 6.34671 10.3256 6.17078 10.5023C5.9941 10.6782 5.90575 10.8962 5.90575 11.1563V16.5821C5.90575 16.8422 5.81779 17.0602 5.64186 17.2361C5.46593 17.412 5.24791 17.5 4.98781 17.5H1.13747C0.832629 17.5 0.56684 17.3866 0.340104 17.1599C0.113368 16.9332 0 16.6674 0 16.3625Z" fill="#0F7685"/>
</svg>
