<svg width="17" height="19" viewBox="0 0 17 19" fill="none" xmlns="http://www.w3.org/2000/svg">
<path d="M15.209 17.8855C15.4631 17.8855 15.7069 17.7845 15.8866 17.6048C16.0664 17.425 16.1673 17.1813 16.1673 16.9271V15.733C16.1712 13.044 12.3589 10.9375 8.50065 10.9375C4.6424 10.9375 0.833984 13.044 0.833984 15.733V16.9271C0.833984 17.1813 0.934952 17.425 1.11467 17.6048C1.2944 17.7845 1.53815 17.8855 1.79232 17.8855H15.209ZM11.9545 4.56846C11.9545 5.02202 11.8651 5.47114 11.6916 5.89018C11.518 6.30922 11.2636 6.68997 10.9429 7.01069C10.6222 7.3314 10.2414 7.58581 9.82238 7.75938C9.40334 7.93295 8.95421 8.02229 8.50065 8.02229C8.04709 8.02229 7.59796 7.93295 7.17893 7.75938C6.75989 7.58581 6.37914 7.3314 6.05842 7.01069C5.7377 6.68997 5.4833 6.30922 5.30972 5.89018C5.13615 5.47114 5.04682 5.02202 5.04682 4.56846C5.04682 3.65244 5.4107 2.77395 6.05842 2.12623C6.70614 1.47851 7.58464 1.11462 8.50065 1.11462C9.41666 1.11462 10.2952 1.47851 10.9429 2.12623C11.5906 2.77395 11.9545 3.65244 11.9545 4.56846Z" stroke="#646368" stroke-width="1.5" stroke-linecap="round" stroke-linejoin="round"/>
</svg>
