<svg width="20" height="20" viewBox="0 0 20 20" fill="none" xmlns="http://www.w3.org/2000/svg">
<path d="M18.75 11.875H16.25V9.375H15V15H5V5H10.625V3.75H8.125V1.25H6.875V3.75H5C4.66848 3.75 4.35054 3.8817 4.11612 4.11612C3.8817 4.35054 3.75 4.66848 3.75 5V6.875H1.25V8.125H3.75V11.875H1.25V13.125H3.75V15C3.75 15.3315 3.8817 15.6495 4.11612 15.8839C4.35054 16.1183 4.66848 16.25 5 16.25H6.875V18.75H8.125V16.25H11.875V18.75H13.125V16.25H15C15.3314 16.2495 15.649 16.1176 15.8833 15.8833C16.1176 15.649 16.2495 15.3314 16.25 15V13.125H18.75V11.875Z" fill="#646368"/>
<path d="M13.125 13.125H6.875V6.875H13.125V13.125ZM8.125 11.875H11.875V8.125H8.125V11.875ZM19.375 8.125H18.125C18.1233 6.4679 17.4643 4.87915 16.2926 3.70741C15.1208 2.53567 13.5321 1.87665 11.875 1.875V0.625C13.8635 0.627151 15.7699 1.41802 17.1759 2.82407C18.582 4.23013 19.3728 6.13654 19.375 8.125Z" fill="#646368"/>
<path d="M16.25 8.125H15C14.999 7.2965 14.6694 6.50222 14.0836 5.91639C13.4978 5.33055 12.7035 5.00099 11.875 5V3.75C13.0348 3.75165 14.1467 4.21312 14.9668 5.03323C15.7869 5.85335 16.2483 6.96519 16.25 8.125Z" fill="#646368"/>
</svg>
