<svg width="18" height="18" viewBox="0 0 18 18" fill="none" xmlns="http://www.w3.org/2000/svg">
<path d="M8.99935 3.99996C8.77833 3.99996 8.56637 4.08776 8.41009 4.24404C8.25381 4.40032 8.16602 4.61228 8.16602 4.83329V13.1666C8.16602 13.3876 8.25381 13.5996 8.41009 13.7559C8.56637 13.9122 8.77833 14 8.99935 14C9.22036 14 9.43232 13.9122 9.5886 13.7559C9.74488 13.5996 9.83268 13.3876 9.83268 13.1666V4.83329C9.83268 4.61228 9.74488 4.40032 9.5886 4.24404C9.43232 4.08776 9.22036 3.99996 8.99935 3.99996ZM4.83268 8.99996C4.61167 8.99996 4.39971 9.08776 4.24343 9.24404C4.08715 9.40032 3.99935 9.61228 3.99935 9.83329V13.1666C3.99935 13.3876 4.08715 13.5996 4.24343 13.7559C4.39971 13.9122 4.61167 14 4.83268 14C5.0537 14 5.26566 13.9122 5.42194 13.7559C5.57822 13.5996 5.66602 13.3876 5.66602 13.1666V9.83329C5.66602 9.61228 5.57822 9.40032 5.42194 9.24404C5.26566 9.08776 5.0537 8.99996 4.83268 8.99996ZM13.166 7.33329C12.945 7.33329 12.733 7.42109 12.5768 7.57737C12.4205 7.73365 12.3327 7.94561 12.3327 8.16663V13.1666C12.3327 13.3876 12.4205 13.5996 12.5768 13.7559C12.733 13.9122 12.945 14 13.166 14C13.387 14 13.599 13.9122 13.7553 13.7559C13.9116 13.5996 13.9993 13.3876 13.9993 13.1666V8.16663C13.9993 7.94561 13.9116 7.73365 13.7553 7.57737C13.599 7.42109 13.387 7.33329 13.166 7.33329ZM14.8327 0.666626H3.16602C2.50297 0.666626 1.86709 0.930018 1.39825 1.39886C0.929408 1.8677 0.666016 2.50358 0.666016 3.16663V14.8333C0.666016 15.4963 0.929408 16.1322 1.39825 16.6011C1.86709 17.0699 2.50297 17.3333 3.16602 17.3333H14.8327C15.4957 17.3333 16.1316 17.0699 16.6004 16.6011C17.0693 16.1322 17.3327 15.4963 17.3327 14.8333V3.16663C17.3327 2.50358 17.0693 1.8677 16.6004 1.39886C16.1316 0.930018 15.4957 0.666626 14.8327 0.666626ZM15.666 14.8333C15.666 15.0543 15.5782 15.2663 15.4219 15.4225C15.2657 15.5788 15.0537 15.6666 14.8327 15.6666H3.16602C2.945 15.6666 2.73304 15.5788 2.57676 15.4225C2.42048 15.2663 2.33268 15.0543 2.33268 14.8333V3.16663C2.33268 2.94561 2.42048 2.73365 2.57676 2.57737C2.73304 2.42109 2.945 2.33329 3.16602 2.33329H14.8327C15.0537 2.33329 15.2657 2.42109 15.4219 2.57737C15.5782 2.73365 15.666 2.94561 15.666 3.16663V14.8333Z" fill="#646368"/>
</svg>
