<svg width="18" height="18" viewBox="0 0 18 18" fill="none" xmlns="http://www.w3.org/2000/svg">
<path d="M2.5 0C1.83696 0 1.20107 0.263392 0.732233 0.732233C0.263392 1.20107 0 1.83696 0 2.5V15C0 15.663 0.263392 16.2989 0.732233 16.7678C1.20107 17.2366 1.83696 17.5 2.5 17.5H15C15.663 17.5 16.2989 17.2366 16.7678 16.7678C17.2366 16.2989 17.5 15.663 17.5 15V2.5C17.5 1.83696 17.2366 1.20107 16.7678 0.732233C16.2989 0.263392 15.663 0 15 0H2.5ZM8.75 8.75C8.91576 8.75 9.07473 8.81585 9.19194 8.93306C9.30915 9.05027 9.375 9.20924 9.375 9.375V13.125C9.375 13.2908 9.30915 13.4497 9.19194 13.5669C9.07473 13.6842 8.91576 13.75 8.75 13.75C8.58424 13.75 8.42527 13.6842 8.30806 13.5669C8.19085 13.4497 8.125 13.2908 8.125 13.125V9.375C8.125 9.20924 8.19085 9.05027 8.30806 8.93306C8.42527 8.81585 8.58424 8.75 8.75 8.75ZM3.75 6.875C3.75 6.70924 3.81585 6.55027 3.93306 6.43306C4.05027 6.31585 4.20924 6.25 4.375 6.25C4.54076 6.25 4.69973 6.31585 4.81694 6.43306C4.93415 6.55027 5 6.70924 5 6.875V13.125C5 13.2908 4.93415 13.4497 4.81694 13.5669C4.69973 13.6842 4.54076 13.75 4.375 13.75C4.20924 13.75 4.05027 13.6842 3.93306 13.5669C3.81585 13.4497 3.75 13.2908 3.75 13.125V6.875ZM13.125 3.75C13.2908 3.75 13.4497 3.81585 13.5669 3.93306C13.6842 4.05027 13.75 4.20924 13.75 4.375V13.125C13.75 13.2908 13.6842 13.4497 13.5669 13.5669C13.4497 13.6842 13.2908 13.75 13.125 13.75C12.9592 13.75 12.8003 13.6842 12.6831 13.5669C12.5658 13.4497 12.5 13.2908 12.5 13.125V4.375C12.5 4.20924 12.5658 4.05027 12.6831 3.93306C12.8003 3.81585 12.9592 3.75 13.125 3.75Z" fill="#0F7685"/>
</svg>
