<svg width="19" height="18" viewBox="0 0 19 18" fill="none" xmlns="http://www.w3.org/2000/svg">
<path d="M9.25926 7.93651C8.16049 7.93651 7.22443 7.54982 6.45106 6.77646C5.67769 6.00309 5.29101 5.06702 5.29101 3.96825C5.29101 2.86949 5.67769 1.93342 6.45106 1.16005C7.22443 0.386684 8.16049 0 9.25926 0C10.358 0 11.2941 0.386684 12.0675 1.16005C12.8408 1.93342 13.2275 2.86949 13.2275 3.96825C13.2275 5.06702 12.8408 6.00309 12.0675 6.77646C11.2941 7.54982 10.358 7.93651 9.25926 7.93651ZM0 16.127V15.3228C0 14.7769 0.15873 14.2663 0.476191 13.791C0.794533 13.3148 1.22222 12.9453 1.75926 12.6825C3.00794 12.0838 4.2575 11.6349 5.50794 11.336C6.7575 11.0362 8.00794 10.8862 9.25926 10.8862C10.5106 10.8862 11.7615 11.0362 13.0119 11.336C14.2623 11.6358 15.511 12.0847 16.7579 12.6825C17.2959 12.9453 17.7235 13.3148 18.041 13.791C18.3593 14.2663 18.5185 14.7769 18.5185 15.3228V16.127C18.5185 16.515 18.3867 16.8413 18.123 17.1058C17.8593 17.3686 17.5331 17.5 17.1442 17.5H1.37566C0.986772 17.5 0.660494 17.3682 0.396826 17.1045C0.133157 16.8408 0.000881834 16.515 0 16.127Z" fill="#0F7685"/>
</svg>
