<svg width="18" height="18" viewBox="0 0 18 18" fill="none" xmlns="http://www.w3.org/2000/svg">
<g clip-path="url(#clip0_174_7372)">
<path d="M9 0C13.9707 0 18 4.0293 18 9C18 13.9707 13.9707 18 9 18C4.0293 18 0 13.9707 0 9C0 4.0293 4.0293 0 9 0ZM9 1.2555C6.94603 1.2555 4.97619 2.07144 3.52381 3.52381C2.07144 4.97619 1.2555 6.94603 1.2555 9C1.2555 11.054 2.07144 13.0238 3.52381 14.4762C4.97619 15.9286 6.94603 16.7445 9 16.7445C11.054 16.7445 13.0238 15.9286 14.4762 14.4762C15.9286 13.0238 16.7445 11.054 16.7445 9C16.7445 6.94603 15.9286 4.97619 14.4762 3.52381C13.0238 2.07144 11.054 1.2555 9 1.2555ZM8.163 5.0229C8.5095 5.0229 8.7903 5.3046 8.7903 5.6511V10.0467H13.1859C13.3483 10.0528 13.502 10.1217 13.6147 10.2387C13.7274 10.3558 13.7903 10.512 13.7903 10.6744C13.7903 10.8369 13.7274 10.9931 13.6147 11.1102C13.502 11.2272 13.3483 11.2961 13.1859 11.3022H8.163C7.99654 11.3017 7.83703 11.2354 7.71932 11.1177C7.60161 11 7.53527 10.8405 7.5348 10.674V5.652C7.5348 5.3046 7.8156 5.0229 8.163 5.0229Z" fill="#646368"/>
</g>
<defs>
<clipPath id="clip0_174_7372">
<rect width="18" height="18" fill="white"/>
</clipPath>
</defs>
</svg>
