<svg width="17" height="25" viewBox="0 0 17 25" fill="none" xmlns="http://www.w3.org/2000/svg">
<path fill-rule="evenodd" clip-rule="evenodd" d="M1.89652 13.8805C2.47773 14.591 3.95673 17.2233 4.2709 18.5416H12.7292C13.0434 17.2245 14.5206 14.5922 15.1018 13.8823C16.0949 12.6707 16.7201 11.1999 16.9034 9.64407C17.0842 8.09119 16.8138 6.51911 16.1246 5.11584C15.4293 3.7019 14.3476 2.51393 13.0047 1.68961C11.6506 0.856131 10.0914 0.415406 8.50127 0.416629C6.90809 0.416629 5.34692 0.85767 3.99782 1.6884C2.65462 2.51238 1.57244 3.70015 0.876691 5.11402C0.187154 6.51676 -0.0838383 8.08839 0.0961075 9.64104C0.276753 11.1919 0.900857 12.6619 1.89652 13.8805ZM9.10423 5.24996L5.47923 10.6875H7.8959V14.3125L11.5209 8.87496H9.10423V5.24996Z" fill="#0F7685"/>
<path d="M4.27051 20.354C4.27051 20.1938 4.33416 20.0401 4.44746 19.9268C4.56077 19.8135 4.71444 19.7499 4.87467 19.7499H12.1247C12.2849 19.7499 12.4386 19.8135 12.5519 19.9268C12.6652 20.0401 12.7288 20.1938 12.7288 20.354C12.7288 20.5143 12.6652 20.668 12.5519 20.7813C12.4386 20.8946 12.2849 20.9582 12.1247 20.9582H4.87467C4.71444 20.9582 4.56077 20.8946 4.44746 20.7813C4.33416 20.668 4.27051 20.5143 4.27051 20.354ZM12.7288 22.1665H4.27051V23.3749C4.27051 23.6953 4.39781 24.0027 4.62442 24.2293C4.85103 24.4559 5.15837 24.5832 5.47884 24.5832H11.5205C11.841 24.5832 12.1483 24.4559 12.3749 24.2293C12.6015 24.0027 12.7288 23.6953 12.7288 23.3749V22.1665Z" fill="#0F7685"/>
</svg>
