<svg width="24" height="24" viewBox="0 0 24 24" fill="none" xmlns="http://www.w3.org/2000/svg">
<path d="M14.168 10.375V7.66663M9.83463 10.375V7.66663M12.0013 22.8333C17.9846 22.8333 22.8346 17.9832 22.8346 12C22.8346 6.01671 17.9846 1.16663 12.0013 1.16663C6.01805 1.16663 1.16797 6.01671 1.16797 12C1.16797 17.9832 6.01805 22.8333 12.0013 22.8333Z" stroke="black" stroke-width="2" stroke-linecap="round" stroke-linejoin="round"/>
<path d="M12.0013 16.3333C13.1506 16.3333 14.2528 15.8768 15.0654 15.0641C15.8781 14.2515 16.3346 13.1493 16.3346 12V10.375H7.66797V12C7.66797 13.1493 8.12451 14.2515 8.93717 15.0641C9.74983 15.8768 10.852 16.3333 12.0013 16.3333ZM12.0013 16.3333V22.8333" stroke="black" stroke-width="2" stroke-linecap="round" stroke-linejoin="round"/>
</svg>
