<svg width="27" height="27" viewBox="0 0 27 27" fill="none" xmlns="http://www.w3.org/2000/svg">
<path d="M25.3125 16.0312H21.9375V12.6562H20.25V20.25H6.75V6.75H14.3438V5.0625H10.9688V1.6875H9.28125V5.0625H6.75C6.30245 5.0625 5.87322 5.24029 5.55676 5.55676C5.24029 5.87322 5.0625 6.30245 5.0625 6.75V9.28125H1.6875V10.9688H5.0625V16.0312H1.6875V17.7188H5.0625V20.25C5.0625 20.6976 5.24029 21.1268 5.55676 21.4432C5.87322 21.7597 6.30245 21.9375 6.75 21.9375H9.28125V25.3125H10.9688V21.9375H16.0312V25.3125H17.7188V21.9375H20.25C20.6973 21.9368 21.1262 21.7588 21.4425 21.4425C21.7588 21.1262 21.9368 20.6973 21.9375 20.25V17.7188H25.3125V16.0312Z" fill="black"/>
<path d="M17.7188 17.7188H9.28125V9.28125H17.7188V17.7188ZM10.9688 16.0312H16.0312V10.9688H10.9688V16.0312ZM26.1562 10.9688H24.4688C24.4665 8.73167 23.5769 6.58686 21.995 5.005C20.4131 3.42315 18.2683 2.53348 16.0312 2.53125V0.84375C18.7157 0.846653 21.2893 1.91432 23.1875 3.8125C25.0857 5.71068 26.1533 8.28432 26.1562 10.9688Z" fill="black"/>
<path d="M21.9375 10.9688H20.25C20.2487 9.85028 19.8038 8.778 19.0129 7.98712C18.222 7.19624 17.1497 6.75134 16.0312 6.75V5.0625C17.597 5.06473 19.098 5.68771 20.2051 6.79487C21.3123 7.90202 21.9353 9.403 21.9375 10.9688Z" fill="black"/>
</svg>
