<svg width="10" height="18" viewBox="0 0 10 18" fill="none" xmlns="http://www.w3.org/2000/svg">
<path d="M0.246387 1.47634C0.167447 1.39281 0.105733 1.29454 0.0647697 1.18715C0.0238066 1.07976 0.00439453 0.965358 0.00764465 0.850469C0.0108948 0.73558 0.0367422 0.622456 0.0837116 0.517556C0.13068 0.412655 0.19785 0.318034 0.281387 0.239093C0.364924 0.160152 0.463193 0.0984381 0.57058 0.0574746C0.677968 0.016511 0.792372 -0.00290005 0.907262 0.000350002C1.02215 0.00360005 1.13527 0.0294474 1.24018 0.0764163C1.34508 0.123385 1.4397 0.190556 1.51864 0.274093L8.95614 8.14909C9.10973 8.31155 9.19531 8.52665 9.19531 8.75022C9.19531 8.97379 9.10973 9.18888 8.95614 9.35134L1.51864 17.2272C1.44022 17.3126 1.34562 17.3815 1.24033 17.43C1.13505 17.4785 1.02117 17.5056 0.905328 17.5097C0.789483 17.5138 0.673974 17.4949 0.565512 17.454C0.45705 17.4131 0.357796 17.351 0.273516 17.2715C0.189235 17.1919 0.121608 17.0963 0.0745621 16.9904C0.0275164 16.8844 0.00199127 16.7702 -0.000533104 16.6543C-0.00305653 16.5384 0.0174713 16.4232 0.0598602 16.3153C0.102248 16.2074 0.165652 16.109 0.246387 16.0258L7.11689 8.75022L0.246387 1.47634Z" fill="black"/>
</svg>
