<svg width="20" height="20" viewBox="0 0 20 20" fill="none" xmlns="http://www.w3.org/2000/svg">
<path d="M12.0365 0H7.1015L6.53537 2.83238C6.06664 3.04243 5.62093 3.30047 5.20537 3.60238L2.46662 2.67575L0 6.94925L2.17088 8.85675C2.11845 9.36757 2.11845 9.88243 2.17088 10.3933L0 12.3007L2.4675 16.5742L5.20537 15.6485C5.61837 15.9478 6.06287 16.2068 6.53537 16.4176L7.1015 19.25H12.0365L12.6026 16.4176C13.0714 16.2076 13.5171 15.9495 13.9326 15.6476L16.6714 16.5742L19.1389 12.3007L16.9671 10.3933C17.0196 9.88243 17.0196 9.36757 16.9671 8.85675L19.138 6.94925L16.6705 2.67575L13.9335 3.6015C13.5179 3.2999 13.0722 3.04215 12.6035 2.83238L12.0365 0ZM9.569 13.125C8.64074 13.125 7.7505 12.7563 7.09413 12.0999C6.43775 11.4435 6.069 10.5533 6.069 9.625C6.069 8.69674 6.43775 7.8065 7.09413 7.15013C7.7505 6.49375 8.64074 6.125 9.569 6.125C10.4973 6.125 11.3875 6.49375 12.0439 7.15013C12.7003 7.8065 13.069 8.69674 13.069 9.625C13.069 10.5533 12.7003 11.4435 12.0439 12.0999C11.3875 12.7563 10.4973 13.125 9.569 13.125Z" fill="#777777"/>
</svg>
