<svg width="8" height="15" viewBox="0 0 8 15" fill="none" xmlns="http://www.w3.org/2000/svg">
<path d="M0.3699 1.67366C0.308727 1.60893 0.260903 1.53278 0.229159 1.44956C0.197415 1.36634 0.182373 1.27769 0.184891 1.18866C0.18741 1.09962 0.20744 1.01196 0.243837 0.930671C0.280235 0.849381 0.332287 0.776056 0.397023 0.714882C0.461758 0.653709 0.537909 0.605885 0.621127 0.574141C0.704345 0.542397 0.793 0.527355 0.882031 0.529873C0.971062 0.532392 1.05873 0.552422 1.14002 0.588819C1.22131 0.625217 1.29463 0.677269 1.3558 0.742005L7.11934 6.84458C7.23837 6.97047 7.30469 7.13715 7.30469 7.31041C7.30469 7.48366 7.23837 7.65034 7.11934 7.77624L1.3558 13.8795C1.29503 13.9456 1.22173 13.9991 1.14014 14.0366C1.05855 14.0742 0.970304 14.0952 0.880533 14.0984C0.790761 14.1016 0.70125 14.0869 0.617199 14.0552C0.533149 14.0235 0.456234 13.9754 0.390922 13.9138C0.325611 13.8521 0.273204 13.7781 0.236748 13.696C0.200291 13.6139 0.18051 13.5253 0.178554 13.4355C0.176598 13.3457 0.192506 13.2564 0.225354 13.1728C0.258203 13.0892 0.307336 13.013 0.3699 12.9485L5.69405 7.31041L0.3699 1.67366Z" fill="#666666"/>
</svg>
