<svg width="7" height="11" viewBox="0 0 7 11" fill="none" xmlns="http://www.w3.org/2000/svg">
<path d="M5.89333 0.997179C5.94219 0.945465 5.9804 0.884633 6.00576 0.818155C6.03112 0.751677 6.04313 0.680855 6.04112 0.609733C6.03911 0.538611 6.02311 0.468582 5.99403 0.403644C5.96495 0.338705 5.92337 0.28013 5.87166 0.231262C5.81995 0.182394 5.75911 0.14419 5.69264 0.118831C5.62616 0.093473 5.55534 0.0814567 5.48421 0.0834686C5.41309 0.0854806 5.34306 0.101481 5.27812 0.130557C5.21319 0.159633 5.15461 0.201215 5.10574 0.252929L0.501576 5.12793C0.406494 5.2285 0.353516 5.36165 0.353516 5.50005C0.353516 5.63846 0.406494 5.77161 0.501576 5.87218L5.10574 10.7477C5.15429 10.8006 5.21285 10.8432 5.27803 10.8733C5.3432 10.9033 5.4137 10.9201 5.48541 10.9226C5.55712 10.9252 5.62863 10.9134 5.69577 10.8881C5.76292 10.8628 5.82436 10.8244 5.87653 10.7751C5.92871 10.7258 5.97057 10.6667 5.99969 10.6011C6.02882 10.5355 6.04462 10.4648 6.04618 10.3931C6.04774 10.3213 6.03504 10.25 6.0088 10.1832C5.98256 10.1164 5.94331 10.0555 5.89333 10.004L1.64016 5.50005L5.89333 0.997179Z" fill="#8E8E8E"/>
</svg>
