<svg width="7" height="12" viewBox="0 0 7 12" fill="none" xmlns="http://www.w3.org/2000/svg">
<path d="M0.575066 1.15073C0.522439 1.09504 0.481297 1.02953 0.453987 0.957938C0.426678 0.886346 0.413737 0.810076 0.415904 0.733483C0.418071 0.65689 0.435302 0.581474 0.466615 0.511541C0.497928 0.441608 0.542708 0.378526 0.598399 0.325899C0.654091 0.273272 0.719603 0.232129 0.791194 0.20482C0.862786 0.177511 0.939055 0.164571 1.01565 0.166737C1.09224 0.168904 1.16766 0.186136 1.23759 0.217448C1.30752 0.248761 1.37061 0.293541 1.42323 0.349233L6.38157 5.59923C6.48396 5.70754 6.54102 5.85093 6.54102 5.99998C6.54102 6.14903 6.48396 6.29243 6.38157 6.40073L1.42323 11.6513C1.37095 11.7082 1.30789 11.7542 1.2377 11.7865C1.1675 11.8188 1.09159 11.8369 1.01436 11.8397C0.937129 11.8424 0.860124 11.8298 0.787816 11.8025C0.715508 11.7752 0.649338 11.7339 0.593151 11.6808C0.536964 11.6278 0.491879 11.5641 0.460515 11.4934C0.429152 11.4228 0.412135 11.3466 0.410452 11.2694C0.40877 11.1921 0.422455 11.1153 0.450714 11.0434C0.478973 10.9714 0.521242 10.9059 0.575066 10.8504L5.1554 5.99998L0.575066 1.15073Z" fill="#848486"/>
</svg>
