<svg width="11" height="5" viewBox="0 0 11 5" fill="none" xmlns="http://www.w3.org/2000/svg">
<path d="M1.68739 0.166472C1.64363 0.125122 1.59215 0.0927958 1.5359 0.0713387C1.47965 0.0498815 1.41973 0.0397134 1.35955 0.0414162C1.29937 0.0431185 1.24011 0.0566573 1.18516 0.0812602C1.13022 0.105863 1.08065 0.141047 1.0393 0.184805C0.997952 0.228563 0.965625 0.280036 0.944168 0.336287C0.922711 0.392538 0.912543 0.452464 0.914246 0.512644C0.915948 0.572824 0.929487 0.63208 0.95409 0.687027C0.978693 0.741975 1.01388 0.791539 1.05763 0.832889L5.18263 4.72872C5.26773 4.80918 5.3804 4.854 5.49751 4.854C5.61462 4.854 5.72729 4.80918 5.81239 4.72872L9.93784 0.832889C9.98256 0.791811 10.0187 0.742259 10.0441 0.687109C10.0695 0.631959 10.0837 0.572312 10.0858 0.511631C10.088 0.45095 10.0781 0.390446 10.0566 0.333632C10.0352 0.276819 10.0027 0.224828 9.96102 0.180682C9.91933 0.136535 9.86928 0.101111 9.81379 0.076468C9.7583 0.051825 9.69846 0.0384545 9.63776 0.0371323C9.57705 0.0358105 9.51669 0.0465631 9.46017 0.0687666C9.40366 0.09097 9.35212 0.124182 9.30855 0.166472L5.49751 3.76531L1.68739 0.166472Z" fill="black"/>
</svg>
