<svg width="8" height="14" viewBox="0 0 8 14" fill="none" xmlns="http://www.w3.org/2000/svg">
<path d="M0.51771 1.45808C0.457564 1.39444 0.410544 1.31957 0.379334 1.23775C0.348124 1.15593 0.333334 1.06876 0.33581 0.981228C0.338286 0.893694 0.35798 0.807504 0.393765 0.72758C0.429551 0.647656 0.480729 0.575563 0.544376 0.515418C0.608024 0.455273 0.682895 0.408252 0.764714 0.377042C0.846533 0.345832 0.933698 0.331042 1.02123 0.333519C1.10877 0.335995 1.19496 0.355688 1.27488 0.391474C1.3548 0.42726 1.4269 0.478437 1.48704 0.542085L7.15371 6.54208C7.27073 6.66586 7.33594 6.82974 7.33594 7.00008C7.33594 7.17042 7.27073 7.3343 7.15371 7.45808L1.48704 13.4588C1.42729 13.5238 1.35522 13.5763 1.275 13.6133C1.19478 13.6502 1.10802 13.6709 1.01976 13.674C0.931496 13.6771 0.84349 13.6627 0.760852 13.6315C0.678214 13.6004 0.602592 13.5531 0.538378 13.4925C0.474164 13.4318 0.422639 13.359 0.386795 13.2783C0.350951 13.1976 0.331502 13.1106 0.329579 13.0223C0.327656 12.934 0.343297 12.8462 0.375593 12.764C0.407889 12.6818 0.456196 12.6068 0.51771 12.5434L5.75238 7.00008L0.51771 1.45808Z" fill="#666666"/>
</svg>
