<svg width="18" height="18" viewBox="0 0 18 18" fill="none" xmlns="http://www.w3.org/2000/svg">
<path d="M14.8346 2.33329H13.168V1.49996C13.168 1.27895 13.0802 1.06698 12.9239 0.910704C12.7676 0.754423 12.5556 0.666626 12.3346 0.666626C12.1136 0.666626 11.9017 0.754423 11.7454 0.910704C11.5891 1.06698 11.5013 1.27895 11.5013 1.49996V2.33329H6.5013V1.49996C6.5013 1.27895 6.4135 1.06698 6.25722 0.910704C6.10094 0.754423 5.88898 0.666626 5.66797 0.666626C5.44695 0.666626 5.23499 0.754423 5.07871 0.910704C4.92243 1.06698 4.83464 1.27895 4.83464 1.49996V2.33329H3.16797C2.50493 2.33329 1.86904 2.59668 1.4002 3.06553C0.931361 3.53437 0.667969 4.17025 0.667969 4.83329V14.8333C0.667969 15.4963 0.931361 16.1322 1.4002 16.6011C1.86904 17.0699 2.50493 17.3333 3.16797 17.3333H14.8346C15.4977 17.3333 16.1336 17.0699 16.6024 16.6011C17.0712 16.1322 17.3346 15.4963 17.3346 14.8333V4.83329C17.3346 4.17025 17.0712 3.53437 16.6024 3.06553C16.1336 2.59668 15.4977 2.33329 14.8346 2.33329ZM15.668 14.8333C15.668 15.0543 15.5802 15.2663 15.4239 15.4225C15.2676 15.5788 15.0556 15.6666 14.8346 15.6666H3.16797C2.94695 15.6666 2.73499 15.5788 2.57871 15.4225C2.42243 15.2663 2.33464 15.0543 2.33464 14.8333V8.99996H15.668V14.8333ZM15.668 7.33329H2.33464V4.83329C2.33464 4.61228 2.42243 4.40032 2.57871 4.24404C2.73499 4.08776 2.94695 3.99996 3.16797 3.99996H4.83464V4.83329C4.83464 5.05431 4.92243 5.26627 5.07871 5.42255C5.23499 5.57883 5.44695 5.66663 5.66797 5.66663C5.88898 5.66663 6.10094 5.57883 6.25722 5.42255C6.4135 5.26627 6.5013 5.05431 6.5013 4.83329V3.99996H11.5013V4.83329C11.5013 5.05431 11.5891 5.26627 11.7454 5.42255C11.9017 5.57883 12.1136 5.66663 12.3346 5.66663C12.5556 5.66663 12.7676 5.57883 12.9239 5.42255C13.0802 5.26627 13.168 5.05431 13.168 4.83329V3.99996H14.8346C15.0556 3.99996 15.2676 4.08776 15.4239 4.24404C15.5802 4.40032 15.668 4.61228 15.668 4.83329V7.33329Z" fill="#848486"/>
</svg>
