<svg width="4" height="14" viewBox="0 0 4 14" fill="none" xmlns="http://www.w3.org/2000/svg">
<path d="M3.55636 1.65756C3.55642 1.86196 3.51623 2.06438 3.43807 2.25325C3.35991 2.44212 3.24531 2.61374 3.10082 2.75832C2.95634 2.9029 2.78479 3.01761 2.59597 3.09589C2.40715 3.17417 2.20476 3.2145 2.00036 3.21456C1.79596 3.21463 1.59354 3.17443 1.40467 3.09627C1.21581 3.01811 1.04418 2.90352 0.899601 2.75903C0.75502 2.61454 0.640315 2.44299 0.562033 2.25417C0.483751 2.06535 0.443425 1.86297 0.443359 1.65856C0.443227 1.24575 0.607088 0.849799 0.898894 0.557804C1.1907 0.26581 1.58655 0.101695 1.99936 0.101563C2.41217 0.10143 2.80812 0.265291 3.10012 0.557097C3.39211 0.848904 3.55623 1.24475 3.55636 1.65756Z" fill="black"/>
<path d="M2.00131 8.5556C2.86067 8.5556 3.55731 7.85896 3.55731 6.9996C3.55731 6.14025 2.86067 5.4436 2.00131 5.4436C1.14196 5.4436 0.445312 6.14025 0.445312 6.9996C0.445312 7.85896 1.14196 8.5556 2.00131 8.5556Z" fill="black"/>
<path d="M2.00131 13.8986C2.86067 13.8986 3.55731 13.202 3.55731 12.3426C3.55731 11.4833 2.86067 10.7866 2.00131 10.7866C1.14196 10.7866 0.445312 11.4833 0.445312 12.3426C0.445312 13.202 1.14196 13.8986 2.00131 13.8986Z" fill="black"/>
</svg>
