<svg width="17" height="25" viewBox="0 0 17 25" fill="none" xmlns="http://www.w3.org/2000/svg">
<path fill-rule="evenodd" clip-rule="evenodd" d="M1.89555 13.8805C2.47676 14.591 3.95576 17.2233 4.26992 18.5416H12.7283C13.0424 17.2245 14.5196 14.5922 15.1008 13.8823C16.094 12.6707 16.7192 11.1999 16.9024 9.64407C17.0832 8.09119 16.8128 6.51911 16.1237 5.11584C15.4283 3.7019 14.3466 2.51393 13.0038 1.68961C11.6496 0.856131 10.0904 0.415406 8.5003 0.416629C6.90711 0.416629 5.34594 0.85767 3.99684 1.6884C2.65365 2.51238 1.57146 3.70015 0.875714 5.11402C0.186178 6.51676 -0.0848148 8.08839 0.0951309 9.64104C0.275777 11.1919 0.899881 12.6619 1.89555 13.8805ZM9.10326 5.24996L5.47826 10.6875H7.89492V14.3125L11.5199 8.87496H9.10326V5.24996Z" fill="#0F7685"/>
<path d="M4.26953 20.354C4.26953 20.1938 4.33318 20.0401 4.44649 19.9268C4.55979 19.8135 4.71346 19.7499 4.8737 19.7499H12.1237C12.2839 19.7499 12.4376 19.8135 12.5509 19.9268C12.6642 20.0401 12.7279 20.1938 12.7279 20.354C12.7279 20.5143 12.6642 20.668 12.5509 20.7813C12.4376 20.8946 12.2839 20.9582 12.1237 20.9582H4.8737C4.71346 20.9582 4.55979 20.8946 4.44649 20.7813C4.33318 20.668 4.26953 20.5143 4.26953 20.354ZM12.7279 22.1665H4.26953V23.3749C4.26953 23.6953 4.39684 24.0027 4.62344 24.2293C4.85005 24.4559 5.15739 24.5832 5.47786 24.5832H11.5195C11.84 24.5832 12.1473 24.4559 12.374 24.2293C12.6006 24.0027 12.7279 23.6953 12.7279 23.3749V22.1665Z" fill="#0F7685"/>
</svg>
