<svg width="11" height="11" viewBox="0 0 11 11" fill="none" xmlns="http://www.w3.org/2000/svg">
<path d="M5.4987 9.83333H1.70703V5.5H0.0820312L5.4987 0.625L7.00453 1.97917H6.58203V2.88375C5.9537 3.10583 5.4987 3.7125 5.4987 4.41667V9.83333ZM7.1237 3.875H7.66536V3.0625H9.83203V3.875H10.3737C10.6716 3.875 10.9154 4.11875 10.9154 4.41667V10.375C10.9154 10.6729 10.6716 10.9167 10.3737 10.9167H7.1237C6.82578 10.9167 6.58203 10.6729 6.58203 10.375V4.41667C6.58203 4.11875 6.82578 3.875 7.1237 3.875ZM7.66536 4.95833V6.58333H9.83203V4.95833H7.66536Z" fill="#4F4E52"/>
</svg>
