<svg width="11" height="11" viewBox="0 0 11 11" fill="none" xmlns="http://www.w3.org/2000/svg">
<path d="M5.22786 9.83337L7.86036 4.56296H6.04036V1.16671L3.33203 6.43712H5.22786V9.83337ZM5.4987 0.083374C6.98828 0.083374 8.2612 0.625041 9.31745 1.68129C10.3737 2.73754 10.9154 4.01046 10.9154 5.50004C10.9154 6.98962 10.3737 8.26254 9.31745 9.31879C8.2612 10.375 6.98828 10.9167 5.4987 10.9167C4.00911 10.9167 2.7362 10.375 1.67995 9.31879C0.623698 8.26254 0.0820312 6.98962 0.0820312 5.50004C0.0820312 4.01046 0.623698 2.73754 1.67995 1.68129C2.7362 0.625041 4.00911 0.083374 5.4987 0.083374Z" fill="#4F4E52"/>
</svg>
