<svg width="9" height="11" viewBox="0 0 9 11" fill="none" xmlns="http://www.w3.org/2000/svg">
<path fill-rule="evenodd" clip-rule="evenodd" d="M1.54033 6.1189C1.80087 6.4374 2.46387 7.61742 2.6047 8.20837H6.39637C6.5372 7.61796 7.19939 6.43794 7.45993 6.11971C7.90513 5.57658 8.1854 4.91727 8.26756 4.21981C8.34858 3.52369 8.22738 2.81897 7.91845 2.18992C7.60675 1.55608 7.12183 1.02355 6.51987 0.654021C5.91282 0.280394 5.21389 0.082827 4.50108 0.0833752C3.78689 0.0833752 3.08706 0.281084 2.48228 0.653479C1.88016 1.02285 1.39505 1.5553 1.08316 2.1891C0.774057 2.81792 0.652578 3.52244 0.733243 4.21846C0.814222 4.91369 1.09399 5.57263 1.54033 6.1189ZM4.77137 2.25004L3.14637 4.68754H4.2297V6.31254L5.8547 3.87504H4.77137V2.25004Z" fill="#4F4E52"/>
<path d="M2.60547 9.02083C2.60547 8.949 2.634 8.88012 2.68479 8.82933C2.73558 8.77853 2.80447 8.75 2.8763 8.75H6.1263C6.19813 8.75 6.26702 8.77853 6.31781 8.82933C6.3686 8.88012 6.39714 8.949 6.39714 9.02083C6.39714 9.09266 6.3686 9.16155 6.31781 9.21234C6.26702 9.26313 6.19813 9.29167 6.1263 9.29167H2.8763C2.80447 9.29167 2.73558 9.26313 2.68479 9.21234C2.634 9.16155 2.60547 9.09266 2.60547 9.02083ZM6.39714 9.83333H2.60547V10.375C2.60547 10.5187 2.66254 10.6564 2.76412 10.758C2.8657 10.8596 3.00348 10.9167 3.14714 10.9167H5.85547C5.99913 10.9167 6.1369 10.8596 6.23848 10.758C6.34007 10.6564 6.39714 10.5187 6.39714 10.375V9.83333Z" fill="#4F4E52"/>
</svg>
