<svg width="11" height="11" viewBox="0 0 11 11" fill="none" xmlns="http://www.w3.org/2000/svg">
<path d="M4.69219 8.47344L7.85469 5.65469C7.95781 5.56302 7.98646 5.45417 7.94063 5.32812C7.89479 5.20208 7.80312 5.1276 7.66562 5.10469L5.19063 4.86406L6.66875 2.81875C6.70312 2.76146 6.72329 2.70692 6.72925 2.65512C6.73521 2.60333 6.71504 2.55475 6.66875 2.50938C6.62292 2.45208 6.56562 2.42642 6.49687 2.43237C6.42812 2.43833 6.3651 2.464 6.30781 2.50938L3.1625 5.32812C3.05938 5.41979 3.03073 5.52865 3.07656 5.65469C3.1224 5.78073 3.21406 5.85521 3.35156 5.87813L5.82656 6.11875L4.33125 8.16406C4.29688 8.22135 4.27969 8.27567 4.27969 8.327C4.27969 8.37833 4.3026 8.42715 4.34844 8.47344C4.39427 8.51973 4.44881 8.54265 4.51206 8.54219C4.57531 8.54173 4.63535 8.51881 4.69219 8.47344ZM5.5 11C4.85833 11 4.25402 10.8996 3.68706 10.6989C3.1201 10.4981 2.6015 10.2146 2.13125 9.84844L1.18594 10.7938C1.11719 10.8625 1.03996 10.9141 0.95425 10.9484C0.868542 10.9828 0.779625 11 0.6875 11C0.492708 11 0.329542 10.934 0.198 10.802C0.0664584 10.67 0.000458333 10.5068 0 10.3125C0 10.2208 0.0171874 10.1321 0.0515624 10.0464C0.0859374 9.96073 0.1375 9.88327 0.20625 9.81406L1.15156 8.86875C0.784896 8.39896 0.501417 7.88058 0.301125 7.31362C0.100833 6.74667 0.000458333 6.14213 0 5.5C0 3.96458 0.532812 2.66406 1.59844 1.59844C2.66406 0.532812 3.96458 0 5.5 0H11V5.5C11 7.03542 10.4672 8.33594 9.40156 9.40156C8.33594 10.4672 7.03542 11 5.5 11Z" fill="#4F4E52"/>
</svg>
