<svg width="11" height="11" viewBox="0 0 11 11" fill="none" xmlns="http://www.w3.org/2000/svg">
<path d="M5.14583 9.83325L7.77833 4.56284H5.95833V1.16659L3.25 6.437H5.14583V9.83325ZM5.41667 0.083252C6.90625 0.083252 8.17917 0.624918 9.23542 1.68117C10.2917 2.73742 10.8333 4.01033 10.8333 5.49992C10.8333 6.9895 10.2917 8.26242 9.23542 9.31867C8.17917 10.3749 6.90625 10.9166 5.41667 10.9166C3.92708 10.9166 2.65417 10.3749 1.59792 9.31867C0.541667 8.26242 0 6.9895 0 5.49992C0 4.01033 0.541667 2.73742 1.59792 1.68117C2.65417 0.624918 3.92708 0.083252 5.41667 0.083252Z" fill="#4F4E52"/>
</svg>
