<svg width="22" height="22" viewBox="0 0 22 22" fill="none" xmlns="http://www.w3.org/2000/svg">
<path d="M11 0C17.0753 0 22 4.9247 22 11C22 17.0753 17.0753 22 11 22C4.9247 22 0 17.0753 0 11C0 4.9247 4.9247 0 11 0ZM9.977 6.1391C9.77355 6.13968 9.57859 6.22076 9.43472 6.36462C9.29086 6.50849 9.20978 6.70345 9.2092 6.9069V13.046C9.2092 13.4706 9.5524 13.8138 9.977 13.8138H16.1161C16.2193 13.8177 16.3222 13.8008 16.4187 13.764C16.5152 13.7272 16.6033 13.6713 16.6777 13.5996C16.7521 13.528 16.8113 13.4421 16.8517 13.3471C16.8921 13.252 16.913 13.1498 16.913 13.0466C16.913 12.9433 16.8921 12.8411 16.8517 12.746C16.8113 12.651 16.7521 12.5651 16.6777 12.4935C16.6033 12.4218 16.5152 12.3659 16.4187 12.3291C16.3222 12.2923 16.2193 12.2754 16.1161 12.2793H10.7437V6.9069C10.7431 6.70364 10.6622 6.50884 10.5186 6.36501C10.3749 6.22118 10.1803 6.13997 9.977 6.1391Z" fill="white"/>
</svg>
