<svg width="35" height="35" viewBox="0 0 35 35" fill="none" xmlns="http://www.w3.org/2000/svg">
<circle cx="17.5014" cy="17.5002" r="13.7162" fill="white"/>
<path d="M23.3346 14.5835C23.3346 16.1306 22.7201 17.6143 21.6261 18.7082C20.5321 19.8022 19.0484 20.4168 17.5013 20.4168C15.9542 20.4168 14.4705 19.8022 13.3765 18.7082C12.2826 17.6143 11.668 16.1306 11.668 14.5835C11.668 13.0364 12.2826 11.5526 13.3765 10.4587C14.4705 9.3647 15.9542 8.75012 17.5013 8.75012C19.0484 8.75012 20.5321 9.3647 21.6261 10.4587C22.7201 11.5526 23.3346 13.0364 23.3346 14.5835Z" fill="#6A6A6A"/>
<path fill-rule="evenodd" clip-rule="evenodd" d="M16.9063 32.0717C9.12828 31.7597 2.91797 25.3547 2.91797 17.5001C2.91797 9.44571 9.44693 2.91675 17.5013 2.91675C25.5557 2.91675 32.0846 9.44571 32.0846 17.5001C32.0846 25.5545 25.5557 32.0834 17.5013 32.0834H17.3015C17.1693 32.0834 17.0376 32.0795 16.9063 32.0717ZM8.14318 26.7022C8.03414 26.389 7.99703 26.0554 8.03459 25.7259C8.07215 25.3965 8.18343 25.0798 8.36016 24.7992C8.53689 24.5187 8.77453 24.2816 9.05545 24.1054C9.33637 23.9293 9.65335 23.8187 9.98286 23.7819C15.6674 23.1526 19.3702 23.2095 25.027 23.795C25.357 23.8293 25.6747 23.9385 25.9561 24.1143C26.2375 24.29 26.475 24.5276 26.6507 24.809C26.8264 25.0904 26.9355 25.4082 26.9697 25.7382C27.004 26.0682 26.9626 26.4016 26.8485 26.7131C29.2731 24.2602 30.6308 20.949 30.6263 17.5001C30.6263 10.2514 24.7499 4.37508 17.5013 4.37508C10.2527 4.37508 4.3763 10.2514 4.3763 17.5001C4.3763 21.0847 5.81349 24.3338 8.14318 26.7022Z" fill="#6A6A6A"/>
</svg>
