<svg width="31" height="31" viewBox="0 0 31 31" fill="none" xmlns="http://www.w3.org/2000/svg">
<path d="M21.3346 12.5835C21.3346 14.1306 20.7201 15.6143 19.6261 16.7082C18.5321 17.8022 17.0484 18.4168 15.5013 18.4168C13.9542 18.4168 12.4705 17.8022 11.3765 16.7082C10.2826 15.6143 9.66797 14.1306 9.66797 12.5835C9.66797 11.0364 10.2826 9.55263 11.3765 8.45867C12.4705 7.3647 13.9542 6.75012 15.5013 6.75012C17.0484 6.75012 18.5321 7.3647 19.6261 8.45867C20.7201 9.55263 21.3346 11.0364 21.3346 12.5835Z" fill="#6A6A6A"/>
<path fill-rule="evenodd" clip-rule="evenodd" d="M14.9063 30.0717C7.12828 29.7597 0.917969 23.3547 0.917969 15.5001C0.917969 7.44571 7.44693 0.916748 15.5013 0.916748C23.5557 0.916748 30.0846 7.44571 30.0846 15.5001C30.0846 23.5545 23.5557 30.0834 15.5013 30.0834H15.3015C15.1693 30.0834 15.0376 30.0795 14.9063 30.0717ZM6.14318 24.7022C6.03414 24.389 5.99703 24.0554 6.03459 23.7259C6.07215 23.3965 6.18343 23.0798 6.36016 22.7992C6.53689 22.5187 6.77453 22.2816 7.05545 22.1054C7.33637 21.9293 7.65335 21.8187 7.98286 21.7819C13.6674 21.1526 17.3702 21.2095 23.027 21.795C23.357 21.8293 23.6747 21.9385 23.9561 22.1143C24.2375 22.29 24.475 22.5276 24.6507 22.809C24.8264 23.0904 24.9355 23.4082 24.9697 23.7382C25.004 24.0682 24.9626 24.4016 24.8485 24.7131C27.2731 22.2602 28.6308 18.949 28.6263 15.5001C28.6263 8.25144 22.7499 2.37508 15.5013 2.37508C8.25266 2.37508 2.3763 8.25144 2.3763 15.5001C2.3763 19.0847 3.81349 22.3338 6.14318 24.7022Z" fill="#6A6A6A"/>
</svg>
