<svg width="99" height="99" viewBox="0 0 99 99" fill="none" xmlns="http://www.w3.org/2000/svg">
<circle cx="49.0088" cy="49.0078" r="38.4111" fill="white"/>
<path d="M65.3428 40.8391C65.3428 45.1715 63.6217 49.3265 60.5582 52.39C57.4947 55.4535 53.3398 57.1746 49.0073 57.1746C44.6749 57.1746 40.5199 55.4535 37.4564 52.39C34.3929 49.3265 32.6719 45.1715 32.6719 40.8391C32.6719 36.5067 34.3929 32.3517 37.4564 29.2882C40.5199 26.2247 44.6749 24.5037 49.0073 24.5037C53.3398 24.5037 57.4947 26.2247 60.5582 29.2882C63.6217 32.3517 65.3428 36.5067 65.3428 40.8391Z" fill="#0F7685"/>
<path fill-rule="evenodd" clip-rule="evenodd" d="M47.3412 89.8139C25.5594 88.94 8.16797 71.0033 8.16797 49.0072C8.16797 26.4515 26.4518 8.16772 49.0074 8.16772C71.563 8.16772 89.8468 26.4515 89.8468 49.0072C89.8468 71.5628 71.563 89.8466 49.0074 89.8466H48.4479C48.0776 89.8466 47.7087 89.8357 47.3412 89.8139ZM22.8007 74.7768C22.4954 73.9 22.3915 72.9656 22.4966 72.043C22.6018 71.1205 22.9135 70.2335 23.4084 69.4478C23.9033 68.6622 24.5688 67.9981 25.3555 67.5049C26.1422 67.0117 27.0299 66.702 27.9526 66.5987C43.8718 64.8365 54.241 64.9958 70.0826 66.6355C71.0066 66.7317 71.8965 67.0375 72.6844 67.5296C73.4724 68.0218 74.1376 68.6872 74.6295 69.4753C75.1215 70.2634 75.427 71.1533 75.523 72.0773C75.619 73.0014 75.5029 73.9351 75.1834 74.8075C81.9732 67.9383 85.7755 58.6656 85.7629 49.0072C85.7629 28.7079 69.3066 12.2517 49.0074 12.2517C28.7082 12.2517 12.2519 28.7079 12.2519 49.0072C12.2519 59.0455 16.2766 68.1445 22.8007 74.7768Z" fill="#0F7685"/>
</svg>
