<svg width="82" height="82" viewBox="0 0 82 82" fill="none" xmlns="http://www.w3.org/2000/svg">
<path d="M57.3428 32.8391C57.3428 37.1715 55.6217 41.3265 52.5582 44.39C49.4947 47.4535 45.3398 49.1746 41.0073 49.1746C36.6749 49.1746 32.5199 47.4535 29.4564 44.39C26.3929 41.3265 24.6719 37.1715 24.6719 32.8391C24.6719 28.5067 26.3929 24.3517 29.4564 21.2882C32.5199 18.2247 36.6749 16.5037 41.0073 16.5037C45.3398 16.5037 49.4947 18.2247 52.5582 21.2882C55.6217 24.3517 57.3428 28.5067 57.3428 32.8391Z" fill="#0F7685"/>
<path fill-rule="evenodd" clip-rule="evenodd" d="M39.3412 81.8139C17.5594 80.94 0.167969 63.0033 0.167969 41.0072C0.167969 18.4515 18.4518 0.167725 41.0074 0.167725C63.563 0.167725 81.8468 18.4515 81.8468 41.0072C81.8468 63.5628 63.563 81.8466 41.0074 81.8466H40.4479C40.0776 81.8466 39.7087 81.8357 39.3412 81.8139ZM14.8007 66.7768C14.4954 65.9 14.3915 64.9656 14.4966 64.043C14.6018 63.1205 14.9135 62.2335 15.4084 61.4478C15.9033 60.6622 16.5688 59.9981 17.3555 59.5049C18.1422 59.0117 19.0299 58.702 19.9526 58.5987C35.8718 56.8365 46.241 56.9958 62.0826 58.6355C63.0066 58.7317 63.8965 59.0375 64.6844 59.5296C65.4724 60.0218 66.1376 60.6872 66.6295 61.4753C67.1215 62.2634 67.427 63.1533 67.523 64.0773C67.619 65.0014 67.5029 65.9351 67.1834 66.8075C73.9732 59.9383 77.7755 50.6656 77.7629 41.0072C77.7629 20.7079 61.3066 4.25167 41.0074 4.25167C20.7082 4.25167 4.25191 20.7079 4.25191 41.0072C4.25191 51.0455 8.27664 60.1445 14.8007 66.7768Z" fill="#0F7685"/>
</svg>
