<svg width="15" height="4" viewBox="0 0 15 4" fill="none" xmlns="http://www.w3.org/2000/svg">
<path d="M12.5062 3.55599C12.3018 3.55606 12.0994 3.51586 11.9105 3.4377C11.7217 3.35954 11.55 3.24495 11.4055 3.10046C11.2609 2.95597 11.1462 2.78442 11.0679 2.5956C10.9896 2.40678 10.9493 2.2044 10.9492 1.99999C10.9492 1.79559 10.9893 1.59318 11.0675 1.40431C11.1457 1.21544 11.2603 1.04382 11.4048 0.899235C11.5492 0.754654 11.7208 0.639949 11.9096 0.561667C12.0984 0.483384 12.3008 0.443059 12.5052 0.442993C12.918 0.442861 13.314 0.606722 13.606 0.898528C13.898 1.19033 14.0621 1.58618 14.0622 1.99899C14.0624 2.4118 13.8985 2.80776 13.6067 3.09975C13.3149 3.39175 12.919 3.55586 12.5062 3.55599Z" fill="#6A6A6A"/>
<path d="M7.16538 3.556C8.02473 3.556 8.72138 2.85935 8.72138 2C8.72138 1.14064 8.02473 0.444 7.16538 0.444C6.30602 0.444 5.60938 1.14064 5.60938 2C5.60938 2.85935 6.30602 3.556 7.16538 3.556Z" fill="#6A6A6A"/>
<path d="M1.82162 3.556C2.68098 3.556 3.37762 2.85935 3.37762 2C3.37762 1.14064 2.68098 0.444 1.82162 0.444C0.96227 0.444 0.265625 1.14064 0.265625 2C0.265625 2.85935 0.96227 3.556 1.82162 3.556Z" fill="#6A6A6A"/>
</svg>
