<svg width="20" height="18" viewBox="0 0 20 18" fill="none" xmlns="http://www.w3.org/2000/svg">
<path d="M1.43444 1.51367L2.11486 0.833252L18.1669 16.8853L17.4865 17.5658L14.2857 14.3553C12.9728 14.9016 11.5353 15.2083 10.0211 15.2083C5.65111 15.2083 1.87527 12.6687 0.0927734 8.97908C1.02236 7.06242 2.47902 5.462 4.27111 4.35992L1.43444 1.51367ZM10.0211 14.2499C11.2574 14.2499 12.4457 14.0295 13.5382 13.6174L12.4649 12.5345C11.7653 13.0137 10.9315 13.2916 10.0211 13.2916C7.62527 13.2916 5.70861 11.3749 5.70861 8.97908C5.70861 8.06867 5.98652 7.23492 6.46569 6.53533L4.98027 5.0595C3.37568 5.99433 2.05685 7.34961 1.16611 8.97908C2.87194 12.1224 6.18777 14.2499 10.0211 14.2499ZM18.8761 8.97908C17.1703 5.83575 13.8544 3.70825 10.0211 3.70825C8.91902 3.70825 7.84569 3.89034 6.84902 4.21617L6.10152 3.46867C7.31861 2.99909 8.64111 2.74992 10.0211 2.74992C14.3911 2.74992 18.1669 5.2895 19.9494 8.97908C19.0786 10.7863 17.7297 12.3208 16.049 13.4162L15.359 12.7166C16.8253 11.7966 18.0424 10.5124 18.8761 8.97908ZM10.0211 4.66658C12.4169 4.66658 14.3336 6.58325 14.3336 8.97908C14.3336 9.76492 14.1228 10.4933 13.7586 11.1258L13.0494 10.4166C13.2603 9.97575 13.3753 9.49658 13.3753 8.97908C13.3753 8.0895 13.0219 7.23636 12.3929 6.60733C11.7638 5.9783 10.9107 5.62492 10.0211 5.62492C9.50361 5.62492 9.02444 5.73992 8.58361 5.95075L7.87444 5.24159C8.50694 4.87742 9.23527 4.66658 10.0211 4.66658ZM6.66694 8.97908C6.66694 9.86866 7.02032 10.7218 7.64935 11.3508C8.27838 11.9799 9.13153 12.3333 10.0211 12.3333C10.6632 12.3333 11.2574 12.1512 11.7653 11.8541L7.14611 7.23492C6.84902 7.74284 6.66694 8.337 6.66694 8.97908Z" fill="black"/>
</svg>
