<svg width="22" height="13" viewBox="0 0 22 13" fill="none" xmlns="http://www.w3.org/2000/svg">
<path d="M21.1925 6.51255C21.1633 6.45161 20.4483 5.01021 18.8516 3.55864C17.37 2.21333 14.8245 0.608643 11.0966 0.608643C7.36859 0.608643 4.82312 2.21333 3.34155 3.55864C1.74484 5.01021 1.02984 6.44927 1.00062 6.51255C0.971237 6.57255 0.956055 6.6375 0.956055 6.70317C0.956055 6.76885 0.971237 6.8338 1.00062 6.8938C1.02984 6.95395 1.74484 8.39536 3.34155 9.84692C4.82312 11.1922 7.36859 12.7961 11.0966 12.7961C14.8245 12.7961 17.37 11.1922 18.8516 9.84692C20.4483 8.39536 21.1633 6.9563 21.1925 6.8938C21.2219 6.8338 21.2371 6.76885 21.2371 6.70317C21.2371 6.6375 21.2219 6.57255 21.1925 6.51255ZM11.0966 11.8586C8.39984 11.8586 6.04515 10.9665 4.09694 9.20786C3.28029 8.46998 2.5892 7.62555 2.04648 6.70239C2.58906 5.77939 3.28016 4.93519 4.09694 4.19771C6.04515 2.43833 8.39984 1.54614 11.0966 1.54614C13.7933 1.54614 16.148 2.43833 18.0962 4.19771C18.9129 4.93519 19.604 5.77939 20.1466 6.70239C19.5992 7.6563 16.8544 11.8586 11.0966 11.8586ZM11.0966 3.10864C10.3147 3.10864 9.5504 3.31941 8.90032 3.7143C8.25023 4.10918 7.74355 4.67045 7.44434 5.32712C7.14514 5.9838 7.06686 6.70638 7.21939 7.4035C7.37192 8.10062 7.74842 8.74096 8.30127 9.24356C8.85413 9.74615 9.55851 10.0884 10.3253 10.2271C11.0922 10.3658 11.887 10.2946 12.6093 10.0226C13.3317 9.75058 13.9491 9.28996 14.3835 8.69897C14.8178 8.10798 15.0497 7.41317 15.0497 6.70239C15.0483 5.74965 14.6314 4.83629 13.8903 4.1626C13.1493 3.48891 12.1446 3.10988 11.0966 3.10864ZM11.0966 9.35864C10.5187 9.35864 9.95375 9.20286 9.47325 8.91098C8.99275 8.61911 8.61824 8.20426 8.39709 7.71889C8.17594 7.23353 8.11808 6.69945 8.23082 6.18418C8.34356 5.66892 8.62185 5.19562 9.03048 4.82414C9.43911 4.45266 9.95974 4.19967 10.5265 4.09718C11.0933 3.99469 11.6808 4.04729 12.2147 4.24834C12.7486 4.44938 13.2049 4.78984 13.526 5.22666C13.8471 5.66348 14.0184 6.17704 14.0184 6.70239C14.0184 7.40687 13.7106 8.0825 13.1626 8.58064C12.6147 9.07879 11.8715 9.35864 11.0966 9.35864Z" fill="black"/>
</svg>
